<svg xmlns="http://www.w3.org/2000/svg" xmlns:xlink="http://www.w3.org/1999/xlink" width="70" height="70" viewBox="0 0 70 70"><defs><style>.a{fill:none;}.b{fill:#5a6e7f;}.c{fill:#fff;}.d{fill:url(#a);}</style><linearGradient id="a" x1="30.14" y1="22.09" x2="69.52" y2="22.09" gradientUnits="userSpaceOnUse"><stop offset="0" stop-color="#688bfe"/><stop offset="0.56" stop-color="#68a4fe"/><stop offset="1" stop-color="#68b4fe"/></linearGradient></defs><path class="a" d="M29.5,8.74A26.26,26.26,0,0,1,51.81,20.47l1.31-.79a27.79,27.79,0,1,0,4.61,14.88,27.55,27.55,0,0,0-3.27-12.63l-1.31.8a26.27,26.27,0,1,1-23.65-14Z"/><path class="b" d="M29.48,7.19A27.83,27.83,0,0,1,53.12,19.68l1.4-.84a29.54,29.54,0,1,0,1.34,2.25l-1.4.84a27.55,27.55,0,0,1,3.27,12.63A27.81,27.81,0,1,1,29.48,7.19Z"/><path class="b" d="M29.61,15.3a19.71,19.71,0,0,1,16.57,8.57l5.63-3.4a26.36,26.36,0,1,0,1.34,2.26L47.5,26.14A19.69,19.69,0,1,1,29.61,15.3Z"/><path class="c" d="M29.71,21.87a13.11,13.11,0,0,1,10.83,5.41l5.64-3.41a20.29,20.29,0,1,0,1.32,2.27l-5.64,3.4a13,13,0,0,1,1.2,5.25A13.14,13.14,0,1,1,29.71,21.87Z"/><path class="b" d="M29.82,28.43a6.53,6.53,0,0,1,5.06,2.27l5.66-3.42a13.12,13.12,0,1,0,2.52,7.51,13,13,0,0,0-1.2-5.25L36.17,33a6.37,6.37,0,0,1,.32,1.91,6.57,6.57,0,1,1-6.67-6.46Z"/><path class="c" d="M30.79,33.16l4.09-2.46a6.56,6.56,0,1,0,1.61,4.19A6.37,6.37,0,0,0,36.17,33L32,35.51a1.17,1.17,0,0,1-1.57-.36l-.06-.1A1.36,1.36,0,0,1,30.79,33.16Z"/><path class="d" d="M67.62,18.42a.85.85,0,0,0,.83,0l.87-.53a.4.4,0,0,0,.2-.37.41.41,0,0,0-.23-.36l-4-2.11.45-.27a.44.44,0,0,0,.14-.59l-.56-.9a.42.42,0,0,0-.58-.14l-.47.28-.09-4.48A.44.44,0,0,0,64,8.57a.42.42,0,0,0-.42,0l-.86.52a.81.81,0,0,0-.41.73l.1,4.73-.23.14L62,10.22a.41.41,0,0,0-.21-.36.41.41,0,0,0-.43,0l-.86.51a.86.86,0,0,0-.41.74l.11,4.73L60,16l-.1-4.48a.42.42,0,0,0-.22-.36.4.4,0,0,0-.42,0l-.86.52a.86.86,0,0,0-.41.74l.09,4a.43.43,0,0,1-.2.37l-3.37,2-1.4.84-1.31.79-5.63,3.4-5.64,3.41L34.88,30.7l-4.09,2.46a1.36,1.36,0,0,0-.43,1.89l.06.1a1.17,1.17,0,0,0,1.57.36L36.17,33l5.69-3.44,5.64-3.4,5.65-3.41,1.31-.8,1.4-.84,3.37-2a.43.43,0,0,1,.41,0l3.72,2a.8.8,0,0,0,.82,0l.87-.52a.41.41,0,0,0,.2-.37.42.42,0,0,0-.22-.37l-4-2.1.22-.14,4.24,2.24a.82.82,0,0,0,.83,0l.86-.52a.44.44,0,0,0,.21-.37.41.41,0,0,0-.23-.36l-4-2.11.22-.14Z"/></svg>